<svg xmlns="http://www.w3.org/2000/svg" width="60" height="63.798" viewBox="0 0 60 63.798"><g fill-rule="evenodd"><path data-name="パス 3" d="M21.628 15.693A18.353 18.353 0 003.881 28.66a15.481 15.481 0 00.893 11.014 10.236 10.236 0 011.1 5.53c-.054.45-.144.9-.218 1.344-.119.713-.273 1.257-1.2 1.454a2.044 2.044 0 00-1.448 2.03.808.808 0 01-.42.711 2.449 2.449 0 00-1.1 1.965.663.663 0 01-.323.563 2.2 2.2 0 00.129 3.948.775.775 0 00.115.061 1.492 1.492 0 011.066 1.861 3.966 3.966 0 002.364 4.122 4.191 4.191 0 004.848-.543c.392-.319.653-.367 1.043-.074a6.8 6.8 0 00.9.52 2.177 2.177 0 003.321-1.843.8.8 0 01.4-.714 2.386 2.386 0 001.088-1.9.68.68 0 01.329-.629 2.3 2.3 0 001.038-2.744c-.1-.343.076-.478.243-.658a9.971 9.971 0 016.789-3.4c8.513-.652 14.043-7.438 14.851-14.9a18.624 18.624 0 00-9.8-18.724 17.917 17.917 0 00-8.261-1.961z" fill="#4a413f"/><path data-name="パス 17" d="M7.578 14.628a1.225 1.225 0 001.159-1.8c-1.38-2.476-2.8-4.931-4.231-7.378a1.284 1.284 0 00-1.763-.447 1.257 1.257 0 00-.408 1.749c1.319 2.437 2.718 4.827 4.136 7.208a1.211 1.211 0 001.107.668z" fill="#e5953b"/><path data-name="パス 18" d="M36.097 14.355a1.14 1.14 0 001.072-.606c1.41-2.434 2.827-4.864 4.219-7.309a1.217 1.217 0 00-.466-1.69 1.267 1.267 0 00-1.756.441 516.417 516.417 0 00-4.191 7.251 1.246 1.246 0 001.122 1.913z" fill="#e5953b"/><path data-name="パス 19" d="M54.586 36.985c1.341 0 2.683.005 4.024 0a1.251 1.251 0 001.387-1.284 1.266 1.266 0 00-1.344-1.284q-4.089-.03-8.178 0a1.291 1.291 0 10.022 2.568c1.366.011 2.729-.001 4.089 0z" fill="#e5953b"/><path data-name="パス 21" d="M45.619 22.435a1.246 1.246 0 001.96 1.036c1.7-.949 3.382-1.929 5.07-2.9.694-.4 1.394-.789 2.072-1.213a1.291 1.291 0 00.52-1.79 1.257 1.257 0 00-1.81-.415c-2.389 1.356-4.766 2.733-7.145 4.108a1.2 1.2 0 00-.667 1.174z" fill="#e5953b"/><path data-name="パス 22" d="M20.861 5.469v4.023a1.206 1.206 0 001.212 1.373c.8.034 1.242-.368 1.285-1.262a84.848 84.848 0 00-.006-8.491c-.04-.772-.493-1.135-1.295-1.11a1.17 1.17 0 00-1.192 1.186c-.014 1.427-.003 2.854-.004 4.281z" fill="#e5953b"/><path data-name="パス 33" d="M38.028 34.249a16.613 16.613 0 00-11.91-16.167c-8.726-2.454-18.157 2.633-20.544 11.1a13.7 13.7 0 00.638 9.338 17.217 17.217 0 011.344 3.853 11.8 11.8 0 01-.431 5.582c-.132.419-.108.63.308.866q4.18 2.37 8.326 4.8c.386.226.62.268.965-.115a11.772 11.772 0 018.164-4.027c6.709-.508 11.411-5.571 12.74-11.554a16.422 16.422 0 00.4-3.676z" fill="#f7ce3e"/><path data-name="パス 34" d="M4.459 50.157c0 .358.323.488.6.648q3.877 2.24 7.755 4.476c.824.476 1.652.944 2.471 1.429a.643.643 0 001.028-.239c.273-.469.116-.763-.31-1.009q-5.2-3-10.4-5.994a.748.748 0 00-1.144.689z" fill="#a7a9a8"/><path data-name="パス 35" d="M12.734 62.057c.445-.071.584-.367.7-.673.131-.33-.047-.54-.309-.7-.633-.374-1.27-.741-1.907-1.109q-4.243-2.448-8.486-4.9c-.428-.248-.782-.334-1.1.174-.338.548-.064.823.388 1.081q2.929 1.675 5.848 3.368 2.164 1.248 4.33 2.493c.193.114.391.196.536.266z" fill="#a7a9a8"/><path data-name="パス 36" d="M14.183 59.465c.468-.02.609-.329.738-.624.152-.347-.037-.579-.326-.747q-1.767-1.025-3.537-2.045l-6.8-3.924c-.409-.237-.779-.4-1.108.119s-.146.826.335 1.1c2.272 1.3 4.536 2.609 6.8 3.915l3.428 1.975c.172.096.35.172.47.231z" fill="#a7a9a8"/><path data-name="パス 37" d="M4.213 58.91a2.664 2.664 0 001.284 2.707 2.7 2.7 0 003.054-.2z" fill="#a6a8a8"/><path data-name="パス 59" d="M21.638 32.262a4.8 4.8 0 00-3.181 3.189 3.5 3.5 0 00-.174 1.409 2.57 2.57 0 003.821 2.109 4.642 4.642 0 002.353-4.571c-.022-.169-.058-.336-.095-.545a.948.948 0 01.665.227 3.679 3.679 0 011.608 4.286 8.091 8.091 0 01-3.578 4.388 10.261 10.261 0 01-3.454 1.451c-.644.148-.926.488-.816.949s.536.651 1.161.5a11.623 11.623 0 007.089-4.7 5.811 5.811 0 001.11-4.913 4.98 4.98 0 00-4.152-3.888 1.135 1.135 0 01-.693-.414 4.878 4.878 0 00-7.642.13 10.514 10.514 0 00-2.05 6.056 13.872 13.872 0 00.324 4.2c.145.632.487.95.942.817.6-.175.623-.63.51-1.148a12.85 12.85 0 01.383-7.107 5.587 5.587 0 011.479-2.336 3.282 3.282 0 014.39-.089z" fill="#4a413f"/><path data-name="パス 65" d="M23.192 35.025c-.1-1.69-.268-1.673-1.575-1.018a2.878 2.878 0 00-1.62 2.5 1.12 1.12 0 00.55 1.164 1.183 1.183 0 001.289-.134 3.035 3.035 0 001.356-2.512z" fill="#efd251"/></g></svg>