<svg xmlns="http://www.w3.org/2000/svg" width="514" height="427.473" viewBox="0 0 514 427.473">
  <g id="rabbit" transform="translate(-3803 -2706)">
    <path id="パス_251" data-name="パス 251" d="M291.543,182.5a39.627,39.627,0,0,1-7.555-8.742,61.157,61.157,0,0,1-4.952-9.613,82.551,82.551,0,0,1-3.647-11.48,86.725,86.725,0,0,1-2.365-20.726,132.868,132.868,0,0,1,1.757-20.98,99.476,99.476,0,0,1,3.2-12.691,51.248,51.248,0,0,1,6-12.9,158.585,158.585,0,0,1,12.883-17.484A119.317,119.317,0,0,1,312.8,52.656c5.365-4.346,9.611-7.413,9.611-7.413.518.269-4.561,5.565-10.391,11.8-5.857,6.214-12.113,13.615-15.087,17.208a114.934,114.934,0,0,0-10.251,13.9,67.8,67.8,0,0,0-6.356,13.13,60.183,60.183,0,0,0-2.255,8.524,94.987,94.987,0,0,0-1.461,14.01,103.9,103.9,0,0,0,.251,13.752,66.536,66.536,0,0,0,1.249,7.752c.569,2,1.349,5.479,2.781,9.523a77.424,77.424,0,0,0,5.825,12.99c2.461,4.311,4.324,7.352,5.543,9.772a30.694,30.694,0,0,1,2.326,5.335c.376,1.259-.356,1.176-1.215.746A12.871,12.871,0,0,1,291.543,182.5Z" transform="translate(3804.18 2662.906)" fill="#231815"/>
    <path id="パス_252" data-name="パス 252" d="M347.309,73.236a34.6,34.6,0,0,0-5.323-11.32c-2.264-3.349-4.733-6.1-6.4-8.737-1.717-2.6-.584-3.319,1.469-2.87a11.772,11.772,0,0,1,6.206,3.89,80.061,80.061,0,0,1,8.763,15.26c.583,1.338,1.992,4.654,3.437,9.063a108.31,108.31,0,0,1,3.81,15.5,120.45,120.45,0,0,1,1.587,24.872,109.671,109.671,0,0,1-4.216,24.565,107.1,107.1,0,0,1-5.915,15.561c-2.1,4.573-4.266,8.145-5.286,10.229a16.363,16.363,0,0,1-3.471,4.626,8.049,8.049,0,0,1-3.212,1.776c-1.763.393-2.612-.655-1.571-2.359,1.094-1.675,3.97-5.7,6.357-9.8a96.861,96.861,0,0,0,4.7-9.363,102.864,102.864,0,0,0,5.9-14.382c2.3-7.072,3.458-14.931,3.381-17.761s.186-8.257-.058-13.794a111.022,111.022,0,0,0-1.446-14.326c-.528-3.19-2.4-7.747-4.339-11.717C349.762,78.143,347.652,74.785,347.309,73.236Z" transform="translate(3804.378 2662.906)" fill="#231815"/>
    <path id="パス_253" data-name="パス 253" d="M355.579,87.824a12.13,12.13,0,0,1,.047-2.175,13.673,13.673,0,0,1,.534-2.117,18.509,18.509,0,0,1,1.631-3.649,54.176,54.176,0,0,1,7.145-9.7c3.616-4.1,7.852-7.59,8.743-8.814,1.86-2.384,4.776-4.225,10.122-8.247a26.249,26.249,0,0,1,7.327-3.52,31.167,31.167,0,0,1,3.126-.862l1.273-.288c.261.444-2,2.006-4.481,3.909-1.273.892-2.556,1.964-3.764,2.8a31.79,31.79,0,0,1-2.939,2.092c-1.415.911-3.395,2.2-5.152,3.532-1.785,1.295-3.346,2.628-4.181,3.286-.4.346-1.27,1.151-2.358,2.178-1.032,1.083-2.33,2.351-3.462,3.736a35.012,35.012,0,0,0-4.535,6.316c-.649,1.367-2.366,4.559-3.6,7.847-1.111,3.276-2.744,4.38-4.055,4.95C355.732,89.669,355.579,87.824,355.579,87.824Z" transform="translate(3804.507 2662.906)" fill="#231815"/>
    <path id="パス_254" data-name="パス 254" d="M404.552,50.388c4.745,4.357,8.173,11.419,9.748,16.6.114.321.28.793.492,1.4.167.614.369,1.362.6,2.224.466,1.726,1.089,3.9,1.535,6.437a113.564,113.564,0,0,1,2.148,17.812c.772,12.851-.936,25.787-1.081,29.278a57.166,57.166,0,0,1-1.888,12.049,98.872,98.872,0,0,1-6.388,17.887c-2.414,5.342-7.068,11.273-10.591,15.86-1.788,2.308-3.244,4.378-4.3,5.879l-1.622,2.443c-.272-.039.076-1.534.983-3.834a73.5,73.5,0,0,1,4.224-8.6c1.8-3.228,3.779-6.637,5.39-9.739s2.857-5.9,3.722-7.7a79.6,79.6,0,0,0,4.921-13.987,122.339,122.339,0,0,0,2.383-12.461,125.875,125.875,0,0,0,.929-19.859c-.222-8.586-1.59-16.855-2.143-18.572-.91-3.469-2.867-12.082-6.707-19.743A75.867,75.867,0,0,1,403,54.919a16.039,16.039,0,0,1-1.288-4.961c-.105-1.2.581-1.123,1.321-.711A9.33,9.33,0,0,1,404.552,50.388Z" transform="translate(3804.618 2662.906)" fill="#231815"/>
    <path id="パス_255" data-name="パス 255" d="M394.313,175.785c2.5,2.647,4.165,6.444,5.343,9.2.592,1.374,3.226,7.938,5.724,14.689,2.544,6.734,4.725,13.731,5.691,15.488a30.6,30.6,0,0,1,2.332,6.465c.708,2.675,1.53,5.954,2.513,10.39a24.428,24.428,0,0,1,.569,5.431c0,.969.017,1.938-.047,2.889-.112.951-.221,1.882-.325,2.761a27.856,27.856,0,0,1-.909,4.345l-.476,1.713c-.278.009-.513-.936-.707-2.382-.112-.725-.151-1.573-.293-2.5l-.463-2.963c-.111-1.032-.363-2.091-.564-3.133-.221-1.043-.356-2.073-.592-3.037-.476-1.927-.761-3.628-.971-4.741a118.728,118.728,0,0,0-3.656-15.156c-.4-1.382-2.052-6.07-3.98-10.545a98.6,98.6,0,0,0-4.539-9.662c-1.134-1.754-3.459-6.219-5.833-10.673s-1.815-7.239-1.149-8.795S394.313,175.785,394.313,175.785Z" transform="translate(3804.608 2663.53)" fill="#231815"/>
    <path id="パス_256" data-name="パス 256" d="M284.972,184.021c-3.364,4.022-8.105,7.768-11.35,10.668-1.564,1.445-9.66,8.041-14.944,16.826a35.928,35.928,0,0,0-4.983,13.315c-.573,4.185-.269,7.22.375,8.384,1.872,4.673,4.768,10.316,14.55,18.734a100.17,100.17,0,0,1,10.991,11.464c1.6,1.973,2.943,3.788,3.827,5.15l1.411,2.178c-.17.228-1.268-.583-2.862-1.98l-6.23-5.2c-4.813-3.9-10.344-8.328-12.733-10.838a71.643,71.643,0,0,1-8.32-9.869,25.42,25.42,0,0,1-1.74-2.914,18.6,18.6,0,0,1-1.309-2.849,23.847,23.847,0,0,1-1.279-4.617c-.081-.567-.117-1.5-.212-2.686-.076-1.188.1-2.568.158-4.152a40.367,40.367,0,0,1,2.536-10.413c2.681-7.12,7.365-12.909,8.16-14.273a59.515,59.515,0,0,1,4.736-5.968c2.217-2.429,4.92-5.2,7.764-7.766,5.685-5.18,9.511-5.809,11.6-5.861C287.216,181.33,284.972,184.021,284.972,184.021Z" transform="translate(3804.051 2663.589)" fill="#231815"/>
    <path id="パス_257" data-name="パス 257" d="M288.887,281.972a60.356,60.356,0,0,0-6.749,4.669,61.062,61.062,0,0,0-5.775,5.249,71.775,71.775,0,0,0-5.892,6.811,121.271,121.271,0,0,0-8.733,13.427C255.975,322.2,251.2,333.107,250.359,336.2c-1.64,6.239-5.177,12.777-10.156,26.284a53.861,53.861,0,0,1-9.173,15.655,31.162,31.162,0,0,1-5.479,5.068l-2.543,1.689c-.267-.216.682-1.527,2.187-3.379a54.776,54.776,0,0,0,4.611-7.75c3.015-6.123,5.35-13.522,6.963-16.971,3.033-6.92,8.5-19.39,10.416-23.761.995-2.173,4.172-9.786,7.664-17.12,3.441-7.352,7.374-14.324,8.168-15.9A62.44,62.44,0,0,1,275.5,283.173a17.485,17.485,0,0,1,9.266-4.806,8.62,8.62,0,0,1,5.385.8c1.075.577.651,1.28.082,1.817A10.235,10.235,0,0,1,288.887,281.972Z" transform="translate(3804.004 2664.131)" fill="#231815"/>
    <path id="パス_258" data-name="パス 258" d="M418.354,246.2c3.154,2.326,5.626,6.137,7.247,8.949a141.7,141.7,0,0,1,7.512,15.3c3.077,7.137,5.316,14.687,6.3,16.6,1.863,3.867,2.752,8.726,4.724,18.11a42.838,42.838,0,0,1,.419,11.631c-.1,1.829-.409,3.437-.56,4.582-.184,1.141-.3,1.834-.3,1.834-.277.047-.608-.9-.949-2.4-.17-.753-.343-1.645-.513-2.622-.2-.976-.407-2.04-.628-3.142-.363-2.2-.93-4.531-1.285-6.618-.448-2.078-.818-3.906-.952-5.114-.367-2.4-.928-5.759-1.648-8.861s-1.465-5.967-1.928-7.431a92.212,92.212,0,0,0-4.274-11.219c-1.01-2.384-2.247-4.638-3.162-6.467-1.009-1.785-1.789-3.111-2.116-3.555-1.324-1.769-4.157-6.268-7.309-10.525-3.123-4.252-3.275-7.083-2.946-8.851C416.282,244.643,418.354,246.2,418.354,246.2Z" transform="translate(3805 2663.873)" fill="#231815"/>
    <path id="パス_259" data-name="パス 259" d="M146.348,357.3a3.941,3.941,0,0,1-2,1.82,3.5,3.5,0,0,1-3.384-.384l-.8-.588.162-1.211a12.091,12.091,0,0,1,2.2-5.923,7,7,0,0,1,2.859-2.207,7.239,7.239,0,0,1,3.256-.446,10.64,10.64,0,0,1,3.275.832,23.985,23.985,0,0,1,4.569,2.644,84.485,84.485,0,0,1,10.054,8.995c1.666,1.671,3.337,3.349,4.936,4.956.8.769,1.589,1.532,2.357,2.175a11.61,11.61,0,0,0,2.306,1.575,30.683,30.683,0,0,0,7.269,3.193c2.443.553,4.986,1.355,8.386,2.117a81.412,81.412,0,0,0,13.31,1.926c4.1.286,9.478,1.046,13.861,1.777s7.72,1.485,7.72,1.485c.148.834-19,1.127-25.1.123A109.009,109.009,0,0,1,190.4,378a62.915,62.915,0,0,1-9.264-3.04,56.363,56.363,0,0,1-5.367-2.5l-1.913-1.044a16.421,16.421,0,0,1-1.994-1.445c-1.252-1.034-2.456-2.152-3.652-3.263-2.379-2.228-4.7-4.413-6.622-6.077a45.419,45.419,0,0,0-3.976-3.181,57.2,57.2,0,0,0-5.319-3.24,10.937,10.937,0,0,0-3.541-1.194,2.316,2.316,0,0,0-2.249.79,21.043,21.043,0,0,0-2.05,4.008l-1.189-1.892c-.085.088-.048.119-.023-.079l0-.232.071.091a1.138,1.138,0,0,0,.691.114,1.7,1.7,0,0,0,1.277-.709c.294-.62.913-.5,1.252.323a2.16,2.16,0,0,1,.047,1.246A2.308,2.308,0,0,1,146.348,357.3Z" transform="translate(3803.659 2664.197)" fill="#231815"/>
    <path id="パス_260" data-name="パス 260" d="M142.093,359.3a41.43,41.43,0,0,1-3.742-3.311,12.16,12.16,0,0,0-2.128-1.531,10.343,10.343,0,0,0-4.374-1.334,9.157,9.157,0,0,0-4.583.876,5.7,5.7,0,0,0-2.315,1.794c-.473.834-1.082,1.55-1.747,2.566-.181.244-.308.537-.481.827l-.217.472-.018.1c0,.111.057.237.256.133l.069.023,1.338.386c.471.158.933.311,1.372.456,1.74.618,3.048,1.227,3.048,1.227-.015.472-2.021.843-4.331,1.044l-1.763.118c-.649.018-1.471,0-2.232-.03-.736-.054-1.452-.135-2.088-.223-.238.032-.106-.186-.113-.306l.061-.4c.049-.261.094-.5.133-.707.106-.412.224-.865.348-1.346.183-.479.353-.988.566-1.5a13.2,13.2,0,0,1,.671-1.285,11.235,11.235,0,0,1,.733-1.124,14.067,14.067,0,0,1,2.961-3.03,15.321,15.321,0,0,1,6-2.93,17.162,17.162,0,0,1,6.521.023,13.135,13.135,0,0,1,6.913,3.372,4.61,4.61,0,0,1,1.7,3.323,3.459,3.459,0,0,1-.729,2.194,1.082,1.082,0,0,1-1.2.393A1.992,1.992,0,0,1,142.093,359.3Z" transform="translate(3803.486 2664.143)" fill="#231815"/>
    <path id="パス_261" data-name="パス 261" d="M111.779,371.918a3.936,3.936,0,0,0-1.968,1.162,2.173,2.173,0,0,0-.477.813,3.5,3.5,0,0,0-.2,1.032,6.284,6.284,0,0,0,1.932,4.438c2.484,2.505,7.128,3.7,10.774,5.122,3.656,1.364,20.868,7.792,38.351,14.319,8.758,3.233,17.585,6.493,24.815,9.161a145.931,145.931,0,0,0,15.34,4.992c4.9,1.057,10.087,2.591,16.812,3.729a50.471,50.471,0,0,0,11.233.807,53.25,53.25,0,0,0,14.06-2.767,59.851,59.851,0,0,0,11.559-5.254,37.853,37.853,0,0,0,9.745-8.327,35.87,35.87,0,0,0,5.181-8.735l1.366-3.971c.164-.032.2.49.126,1.469a19.353,19.353,0,0,1-.674,4.155,30.816,30.816,0,0,1-6.332,12.434,40.758,40.758,0,0,1-13.173,10.178,50.211,50.211,0,0,1-12.387,4.25,63.13,63.13,0,0,1-10.633,1.08,61.025,61.025,0,0,1-12.031-1.23,149.7,149.7,0,0,1-18.449-5.026c-1.8-.613-5.831-1.931-10.873-3.725s-11.1-3.983-17.171-6.026c-12.111-4.139-23.986-8.131-26.6-8.849s-7.061-2.105-12.423-3.829c-2.679-.869-5.588-1.811-8.615-2.8l-4.612-1.508a41.777,41.777,0,0,1-5.006-1.919,15.914,15.914,0,0,1-4.7-3.312,11.781,11.781,0,0,1-2.745-4.7,9.778,9.778,0,0,1-.232-4.922,8.192,8.192,0,0,1,.816-2.149,7.079,7.079,0,0,1,1.384-1.782,6.709,6.709,0,0,1,5.9-1.61,4.373,4.373,0,0,1,3.058,2.15c.392.865.148,1.173-.135,1.216a4.84,4.84,0,0,1-1.157-.182A4.762,4.762,0,0,0,111.779,371.918Z" transform="translate(3803.6 2664.569)" fill="#231815"/>
    <path id="パス_262" data-name="パス 262" d="M168.712,363.454a41.108,41.108,0,0,1,9.648-2.907c2.784-.5,26.245-5.3,29.669-6.839,3.431-1.487,7.7-2.105,15.644-4.641a64.965,64.965,0,0,1,9.931-2.042c3.173-.444,5.677-.592,5.677-.592.272.688-12.66,5.447-16.92,6.486l-14.607,3.563c-2.684.658-18.436,4.91-20.3,5.619-1.856.732-6.5,2.078-11.17,3.358s-7.1.444-8.344-.263S168.712,363.454,168.712,363.454Z" transform="translate(3803.761 2664.148)" fill="#231815"/>
    <path id="パス_263" data-name="パス 263" d="M39.305,309.647c9.216-2.217,20.369-4.153,28.421-5.589,4.023-.737,23-4.046,42.185-7.889,19.193-3.807,38.633-7.964,43.775-9.3,10.289-2.652,22.412-5.017,45.8-10.194,8.442-1.866,19.591-3.839,28.643-5.238,4.519-.736,8.527-1.264,11.392-1.675l4.6-.632c.329.3-9.22,2.312-20.34,4.79-11.127,2.44-23.837,5.3-30.005,6.555-12.341,2.482-34.531,7.257-42.315,8.9L92.29,302.129c-5.528,1.3-19.1,4.132-32.731,6.725-13.622,2.637-19.994,2.637-23.192,2.477C33.163,311.145,39.305,309.647,39.305,309.647Z" transform="translate(3803 2663.886)" fill="#231815"/>
    <path id="パス_264" data-name="パス 264" d="M200.644,137.935c-5.183.807-27.009,4.827-32.576,5.874-5.585.927-42.781,8.2-47.952,9-5.178.762-18.008,3.265-21.855,4.027l-14.109,2.779L67.9,162.829c-2.137.421-11.88,2.828-16.158,3.667s-23.052,4.762-30.761,6.239S6.422,175.51,7.534,174.347s2.35-1.643,3.5-2.579,3.469-.419,8.561-1.631,15.357-3.209,23.39-5.264A162.565,162.565,0,0,1,61.846,161.4c4.747-.7,13.481-1.469,18.138-2.63s13.254-2.617,16.631-3.518,18.3-4.062,23.3-5.745,21.025-3.792,25.31-4.59.255-1,4.286-.8,5.4.43,8.4-.126,20.85-4.724,23.473-4.926c2.615-.226,4.254-.981,6.014-1.041a16.846,16.846,0,0,0,5.2-.646c2.971-.737,1.717-.3,5.512-1.4s.355-.534,6.382-1.517S211.815,136.113,200.644,137.935Z" transform="translate(3803 2663.299)" fill="#231815"/>
    <path id="パス_265" data-name="パス 265" d="M254.414,268.429a11.087,11.087,0,0,1,4.475,1.406c.589.293,3.362,1.747,6.158,3.268a53.611,53.611,0,0,0,6.486,3.269c1.749.386,3.338,1.654,6.92,3.193,2.587,1.117,5.907,4.4,5.907,4.4-.263.618-6.391-1.518-8.138-2.537-1.744-1.034-4.941-2.8-6.06-3.423a76.081,76.081,0,0,0-8.9-3.937c-.918-.19-3.009-.939-5.135-1.7a3.646,3.646,0,0,1-2.724-3.056C253.295,268.408,254.414,268.429,254.414,268.429Z" transform="translate(3804.054 2663.82)" fill="#231815"/>
    <path id="パス_266" data-name="パス 266" d="M213,137.092a149.417,149.417,0,0,1,5.436,17.84c.65,2.549,3.668,14.572,6.936,26.736s6.7,24.491,7.9,27.7c2.4,6.425,4.174,14.185,8.694,28.938,3.292,10.646,6.377,28.444,6.377,28.444-.652.521-8.422-23.74-10.57-31.546-2.071-7.831-6-21.9-7.362-26.835s-9.915-33.881-11.1-37.346c-1.233-3.449-3.812-12-6.309-20.577s-2.291-12.809-1.926-14.979S213,137.092,213,137.092Z" transform="translate(3803.889 2663.425)" fill="#231815"/>
    <path id="パス_267" data-name="パス 267" d="M48.609,295.853c7.989-2.064,17.685-3.739,24.684-4.989,3.5-.628,20-3.49,36.69-6.776,16.7-3.262,33.612-6.807,38.078-8,8.933-2.372,19.5-4.311,39.827-8.859,7.338-1.631,17.04-3.316,24.922-4.478,3.935-.611,7.423-1.053,9.918-1.387l4.006-.516c.3.319-7.991,2.17-17.646,4.39-9.66,2.2-20.7,4.717-26.068,5.8-10.735,2.131-30.042,6.216-36.815,7.613-6.76,1.457-46.614,10.037-51.454,11.08-4.8,1.169-16.6,3.662-28.441,5.961-11.838,2.337-17.413,2.14-20.218,1.861C43.285,297.246,48.609,295.853,48.609,295.853Z" transform="translate(3803 2663.837)" fill="#231815"/>
    <path id="パス_268" data-name="パス 268" d="M19.655,179.469c8.206-1.992,18.147-3.627,25.322-4.863,3.589-.611,20.5-3.446,37.618-6.69,17.121-3.223,34.472-6.718,39.057-7.885,9.173-2.326,20-4.239,40.858-8.717,7.53-1.6,17.469-3.279,25.549-4.415,4.033-.6,7.606-1.039,10.164-1.36l4.106-.5c.3.3-8.213,2.1-18.121,4.264s-21.245,4.629-26.746,5.7c-11,2.186-30.815,6.125-37.759,7.5-6.934,1.436-47.814,9.892-52.777,10.919-4.927,1.145-17.027,3.6-29.175,5.851-12.143,2.287-17.843,2.092-20.7,1.833C14.184,180.814,19.655,179.469,19.655,179.469Z" transform="translate(3803 2663.341)" fill="#231815"/>
    <path id="パス_269" data-name="パス 269" d="M16.455,190.023a142.639,142.639,0,0,1,3.972,14.991c.486,2.135,2.667,12.209,5.072,22.4,2.39,10.194,5.022,20.494,5.954,23.182,1.846,5.378,3.237,11.847,7.144,24.022,1.406,4.392,3.009,10.208,4.315,14.914s2.3,8.308,2.3,8.308c-.186.221-2.32-4.55-4.445-10.272-2.171-5.7-4.368-12.337-5.291-15.581-1.854-6.484-5.026-18.217-6.069-22.346-1.086-4.115-7.482-28.365-8.264-31.329-.888-2.91-2.765-10.09-4.58-17.287s-1.727-10.661-1.483-12.432S16.455,190.023,16.455,190.023Z" transform="translate(3803 2663.669)" fill="#231815"/>
    <path id="パス_270" data-name="パス 270" d="M203.9,147.972a120.532,120.532,0,0,1,4.614,15.288c1.1,4.371,9.964,41.271,11.893,46.811s3.3,12.21,7,24.869c2.668,9.135,5.4,24.323,5.4,24.323-.566.458-7.182-20.315-8.877-27.038s-4.819-18.828-5.889-23.075-7.846-29.164-8.848-32.132-3.1-10.3-5.207-17.642-1.995-10.934-1.7-12.792S203.9,147.972,203.9,147.972Z" transform="translate(3803.84 2663.453)" fill="#231815"/>
    <path id="パス_271" data-name="パス 271" d="M4.48,181.911c-.118.472-.24.951-.362,1.438l-.2.727-.037.314.087.2a1.392,1.392,0,0,1,.1.323l.259.988.484,2c.309,1.339.584,2.686.845,4,.542,2.637.986,5.175,1.368,7.36.477,2.587,2.551,14.817,5.21,27.142,2.609,12.332,5.748,24.749,6.955,27.965,2.426,6.42,3.944,14.254,8.953,28.825,1.8,5.257,3.706,12.27,5.222,17.965s2.606,10.078,2.606,10.078c-.362.314-3.1-5.38-5.87-12.209-2.809-6.814-5.655-14.752-6.786-18.662-2.306-7.8-6.169-21.951-7.389-26.942-.633-2.489-2.95-11.038-5.063-19.455-2.129-8.41-4.09-16.68-4.623-18.442-1.053-3.524-3.163-12.245-5-21.032a51.9,51.9,0,0,1-.927-5.7c-.087-.823-.145-1.587-.179-2.294-.011-.355-.023-.693-.033-1.02-.036-.53-.069-1.037-.1-1.525.257-.472.55-1.022.737-1.311.169-.232.33-.453.484-.667.317-.418.621-.788.908-1.113a13.929,13.929,0,0,1,1.54-1.506C5.425,177.9,4.48,181.911,4.48,181.911Z" transform="translate(3803 2663.676)" fill="#231815"/>
    <path id="パス_272" data-name="パス 272" d="M445.806,324.059l-45.518,4.769-33.776,3.4-20.856,2.077c-5.937.657-10.363,1.466-12.081,1.787a41.432,41.432,0,0,0-14.3,5.056,20.452,20.452,0,0,0-5.788,5.182,23.037,23.037,0,0,0-1.649,2.633c-.364.839-.627,1.578-.859,2.136a161.414,161.414,0,0,0-4.841,18.942c-.549,2.914-1.3,7.741-1.719,12.267-.391,4.564-.748,8.752-.876,10.25-.146,1.506-.287,5.761-.785,10.42a103.115,103.115,0,0,1-2.032,12.644c-.2.769-.355,1.757-.8,3.2a19.366,19.366,0,0,1-.742,2.293A16.879,16.879,0,0,1,298,423.738a13.686,13.686,0,0,1-4.767,5.3,15.231,15.231,0,0,1-7.511,2.187c-5.055.19-9.612-.911-13.679-1.794-4.017-.923-7.655-1.771-10.437-2.7s-5.186-1.961-7.407-2.858-4.2-1.743-5.8-2.468c-3.214-1.45-4.9-2.5-3.792-2.886,2.226-.772,4.05-.479,6.148-.881,2.093-.435,4.382,2.193,11.176,4.387,3.316,1.011,8.647,2.175,14.4,3.325a39.47,39.47,0,0,0,8.677.844c2.787-.172,5.2-1.016,6.562-2.742a15.549,15.549,0,0,0,2.875-5.988c.322-1.037.578-2.243.854-3.351s.578-2.185.807-3.23c1.027-4.162,1.862-7.769,2.477-10.985,1.241-6.395,3.381-18.375,4.047-24.979a90.3,90.3,0,0,1,2.17-12.283c.49-2.178,1.1-4.266,1.546-6.132.506-1.848.942-3.453,1.191-4.643a15.446,15.446,0,0,1,.7-2.482c.184-.525.384-1.1.6-1.713l.972-1.845a24.056,24.056,0,0,1,6.717-7.392c5.861-4.218,13.006-6.319,16.5-7.66a39.163,39.163,0,0,1,7.778-1.8c3.237-.465,6.935-.781,10.553-1.008,7.216-.458,14.3-.76,17.292-1.048,5.994-.579.453-1.569,5.994-.579s7.411,1.573,11.607,1.169,29.225-4.343,32.858-4.313,5.957-.955,8.392-.809a19.929,19.929,0,0,0,7.229-.316,77.315,77.315,0,0,0,7.719-1.506c5.321-1.276.527-.815,8.918-1.624S461.39,322.555,445.806,324.059Z" transform="translate(3805 2664.569)" fill="#231815"/>
    <path id="パス_273" data-name="パス 273" d="M463.436,330.577c3.484,4.445,6.369,7.7,6.425,13.308-.017,3.572.232,9.107.285,14.993.081,5.886.1,12.11.076,17.089.028,4.977-.184,11.949-.717,18.151s-1.306,11.626-1.631,13.59c-.562,3.936-.368,7.406-1.712,7.906-1.374.484-1.677-2.587-1.218-5.121.214-1.273,1.079-7.769,1.552-14.429.506-6.658.714-13.459,1.013-15.3.357-1.836.164-6.921-.348-11.78-.457-4.866-1.186-9.5-1.086-10.615.254-2.238-.584-7.7-1.042-10.608a52.228,52.228,0,0,0-2.99-11.017,26.182,26.182,0,0,1-1.2-6.056C460.614,328.449,462.494,329.355,463.436,330.577Z" transform="translate(3805 2664.569)" fill="#231815"/>
    <path id="パス_274" data-name="パス 274" d="M37.527,311.071a29.548,29.548,0,0,1,.539,3.806l.158,1.878.082.916a1.406,1.406,0,0,0,.061.316l.123.154.1.056a1.4,1.4,0,0,1,.187.126l1.477,1.069c.96.7,1.848,1.4,2.694,1.989A198.721,198.721,0,0,0,60.984,333.33c8.531,5.006,17.6,9.486,20.156,10.408,5.128,1.813,10.561,5,21.689,10.072a118.021,118.021,0,0,1,14.6,8.475l-1.921,3.541c-3.163-2.045-5.172-3.446-5.172-3.446.073-.349,2.586.5,6.022,1.87l.212-.391c-5.967-2.415-14.756-6.281-18.364-8.149-5.66-2.984-16-8.122-19.6-9.972-1.8-.925-8.1-3.941-14.21-7.062s-11.989-6.427-13.29-7.1a127.173,127.173,0,0,1-14.666-8.972c-.4-.272-.589-.4-1.384-.987l-.962-.72c-.118-.142-.4-.191-.378-.4l-.037-.577c-.02-.381-.04-.753-.06-1.12l-.021-.541c-.009-.2-.013-.351-.009-.418q.006-.574.043-1.1a18.275,18.275,0,0,1,.56-3.428,15.1,15.1,0,0,1,1.539-3.8c.474-.822.931-.472,1.274.132A6.306,6.306,0,0,1,37.527,311.071Z" transform="translate(3803 2664.104)" fill="#231815"/>
    <path id="パス_275" data-name="パス 275" d="M46.657,421.663c-.694.158-4.865.039-7.525,1.215a10.433,10.433,0,0,0-2.809,1.594c-.657.341-1.355,1.553-.83,1.722s4.695.281,5.914.293,3.349-.276,3.753-.653.792-1.232,1.627-1.42c1.386-.346,32.017-7.108,35.977-7.908,3.948-.855,14.217-2.821,16.954-3.663s3.647-1.141,5.493-1.606,8.616-1.743,10.719-2.145c2.092-.434,14.248-2.652,15.888-2.926,1.63-.339,13.814-2.343,17.073-3.021s6.746-1.469,6.682-1.938-.348-.8-4.141-.333c-1.951.227-3.993.706-5.623,1.065-1.639.341-5.594,1.16-10.031,2.082s-22.428,4.3-26.166,4.991a44.309,44.309,0,0,0-6.222,1.64c-1.842.476-10.244,2.115-12.337,2.566-2.1.414-10.263,2.029-12.6,2.491-2.324.495-18.008,3.346-20.308,3.967C55.85,420.276,47.389,421.5,46.657,421.663Z" transform="translate(3803 2664.569)" fill="#231815"/>
    <path id="パス_276" data-name="パス 276" d="M36.749,437.422c5.745-1.929,12.795-3.521,17.888-4.666,5.084-1.188,48.073-10.352,54.623-12.111,6.54-1.811,14.29-3.244,29.214-6.563,5.389-1.185,12.519-2.37,18.326-3.118,2.9-.4,5.466-.679,7.31-.857l2.955-.293c.212.272-5.9,1.527-12.989,3.112s-15.193,3.426-19.128,4.213c-7.883,1.517-22.035,4.547-26.993,5.607-4.969,1.008-34.078,7.841-37.556,8.861-3.483.994-12.056,3.133-20.63,5.28s-12.674,2.191-14.763,2.006S36.749,437.422,36.749,437.422Z" transform="translate(3803 2664.569)" fill="#231815"/>
    <path id="パス_277" data-name="パス 277" d="M470.224,329.812a28.664,28.664,0,0,1,5.7-1.841c1.645-.4,15.539-3.53,17.59-4.348s4.577-1.246,9.309-2.7A72.359,72.359,0,0,1,512,319.113c.2.355-7.531,3.06-10.055,3.674l-8.659,2.157c-1.6.39-10.922,2.958-12.02,3.376s-3.837,1.238-6.575,2.056-4.154.564-4.9.3S470.224,329.812,470.224,329.812Z" transform="translate(3805 2664.015)" fill="#231815"/>
    <path id="パス_278" data-name="パス 278" d="M469.5,341.873a31.724,31.724,0,0,1,5.809-1.87c1.674-.383,15.763-3.813,17.843-4.69,2.082-.862,4.641-1.357,9.454-2.888a67.531,67.531,0,0,1,9.36-1.873c.2.342-7.687,3.075-10.244,3.755l-8.794,2.336c-1.617.428-11.088,3.216-12.211,3.644s-3.91,1.3-6.711,2.147-4.235.572-4.979.3S469.5,341.873,469.5,341.873Z" transform="translate(3805 2664.063)" fill="#231815"/>
    <path id="パス_279" data-name="パス 279" d="M281.607,95.688c-1.838,6.618,4.044,5.149,9.56,2.573s11.766-5.882,13.236,1.1,4.779,12.5,9.927,4.044,6.251-11.4,12.133-14.707,12.869-1.84,11.766,4.044,1.1,10.662,5.148,7.72,6.618-5.147,9.192.369,4.412,11.029,5.515,4.411S355.51,77.67,346.318,63.7s-12.5-20.958-15.442-20.591-7.353.369-15.442,8.458S286.019,80.614,281.607,95.688Z" transform="translate(3804.293 2662.906)" fill="#231815"/>
    <path id="パス_280" data-name="パス 280" d="M358.451,82.084c5.148-6.249,15.443-21.325,25.37-28.311s12.869-7.72,15.075-6.985,9.191,8.089,15.442,30.884,3.677,27.576,2.941,34.193-4.412,3.309-6.618,1.471-5.148-7.72-7.721-5.882-6.986.367-12.5,2.573-8.089,3.309-7.354-4.411,2.574-10.295-2.573-11.031-9.56-5.882-11.766-1.1a51.82,51.82,0,0,1-6.986,11.031c-2.574,3.309-5.883-2.94-5.148-4.045S352.569,87.6,358.451,82.084Z" transform="translate(3804.583 2662.906)" fill="#231815"/>
    <path id="パス_281" data-name="パス 281" d="M90.594,338.057c-11.184-5.777-24.834-12.688-29.5-15.312S49.215,316.592,49.26,317.7c.036.9,7.286,4.557,10.738,6.03s23.639,11.349,31.41,15.5c7.787,4.125,17.018,8.975,22.57,12.174,1.382.807,2.63,1.446,3.58,1.883a5.221,5.221,0,0,0,1.826.685c.473-.019-.845-1.38-5.359-3.741C104.98,345.529,101.211,343.57,90.594,338.057Z" transform="translate(3803 2664.078)" fill="#231815"/>
    <path id="パス_282" data-name="パス 282" d="M99.762,330.584c-9.521-4.6-21.138-10.1-25.117-12.2s-10.113-4.9-10.044-3.988c.056.744,6.226,3.655,9.155,4.819s20.1,9.017,26.721,12.323c6.633,3.29,14.494,7.153,19.234,9.709a19.2,19.2,0,0,0,4.6,2.033c.393-.026-.75-1.125-4.6-3C112.007,336.531,108.8,334.974,99.762,330.584Z" transform="translate(3803 2664.042)" fill="#231815"/>
    <path id="パス_283" data-name="パス 283" d="M262.335,285.679c-3.645-1.934-8.1-4.267-9.582-5.245-1.471-1.006-3.926-2.036-4.16-1.076-.192.779,2.2,1.9,3.4,2.231a86.257,86.257,0,0,1,10.4,4.871c2.513,1.438,5.557,3.007,7.426,3.993s3.4.188.3-1.022A69.326,69.326,0,0,1,262.335,285.679Z" transform="translate(3804.017 2663.854)" fill="#231815"/>
    <path id="パス_284" data-name="パス 284" d="M173.082,356.766c-5.916,1.582-7.84,3.13.872.857,8.87-2.315,16.36-4.866,29.527-8.493s26.555-7.167,34.411-9.267c7.67-2.049,6.8-3.258-8.481,1.436-8.182,2.51-12.241,3.377-26.085,7.266C192.267,351.672,180.761,354.715,173.082,356.766Z" transform="translate(3803.768 2664.117)" fill="#231815"/>
    <path id="パス_285" data-name="パス 285" d="M209.293,340.2c-17.79,4.648-16.674,2.758-9.2,1.076s14.848-3.781,20.8-5.238,11.9-2.914,17.892-4.232,18.024-3.678,10.619-1.717-10.317,2.965-19.243,5.15S209.293,340.2,209.293,340.2Z" transform="translate(3803.857 2664.061)" fill="#231815"/>
    <path id="パス_286" data-name="パス 286" d="M203.01,333.289c-17.79,4.648-16.674,2.758-9.2,1.076s14.848-3.783,20.8-5.238,11.9-2.916,17.892-4.234,18.023-3.676,10.619-1.715-10.317,2.965-19.243,5.15S203.01,333.289,203.01,333.289Z" transform="translate(3803.829 2664.033)" fill="#231815"/>
    <path id="パス_287" data-name="パス 287" d="M192.707,439.16a3.965,3.965,0,0,1-2.145-1.2,6.676,6.676,0,0,1-1.283-1.8,21.2,21.2,0,0,1-2.035-6.323c-.555-2.961-.291-5.96-.574-6.8-.457-1.71.137-3.562,1.094-7.28a8.028,8.028,0,0,1,2.746-3.765,10.153,10.153,0,0,1,1.564-1.041l.658-.356c.179.151.135.621-.023,1.232-.174.6-.432,1.362-.648,2.178-.516,1.583-.82,3.325-1.164,4.078a17.215,17.215,0,0,0-.927,2.953,22.557,22.557,0,0,0-.414,2.616c-.017.263-.023.857,0,1.6a18.013,18.013,0,0,0,.391,2.508,10.043,10.043,0,0,0,1.4,3.574c.509.59,1.5,2.054,2.651,3.253,1.14,1.152.683,2.559.233,3.683A1.389,1.389,0,0,1,192.707,439.16Z" transform="translate(3803.74 2664.569)" fill="#231815"/>
    <path id="パス_288" data-name="パス 288" d="M196.645,439.847c4.471.363,9.45,1.992,13.045,3.169s33.687,11.661,38.571,12.488,10.182,3.014,20.909,5.791c7.74,2.005,19.564,7.455,19.564,7.455-.04.972-17.98-2.9-23.512-4.713s-15.535-4.978-19.029-6.121-24.3-7.237-26.9-7.72-8.789-2.143-14.982-3.8-8.529-3.892-9.59-5.34S196.645,439.847,196.645,439.847Z" transform="translate(3803.931 2664.569)" fill="#231815"/>
    <path id="パス_289" data-name="パス 289" d="M184.18,340.637c-2.763-1.116-1.819-2.4-.788-1.7a26.053,26.053,0,0,0,3.135,1.471,20.585,20.585,0,0,1,2.565,1.5c.811.583,2.3,2,1.138,1.559a19.914,19.914,0,0,1-3.047-1.1C185.869,341.678,184.18,340.637,184.18,340.637Z" transform="translate(3803.724 2664.074)" fill="#231815"/>
    <path id="パス_290" data-name="パス 290" d="M247.536,323.794c-1.925-1-.877-2.182-.225-1.552a13.78,13.78,0,0,0,2.136,1.322,10.871,10.871,0,0,1,1.678,1.35c.506.527,1.351,1.817.535,1.42a10.85,10.85,0,0,1-2.153-.983C248.628,324.733,247.536,323.794,247.536,323.794Z" transform="translate(3803.973 2664.007)" fill="#231815"/>
    <path id="パス_291" data-name="パス 291" d="M70.733,313.785c8.059-1.664,17.758-3.362,24.759-4.627,3.5-.637,19.987-3.6,36.673-6.943,16.689-3.323,33.6-6.893,38.094-7.95,8.99-2.1,19.515-4.234,39.883-8.549,7.351-1.547,17.02-3.349,24.87-4.652,3.919-.683,7.391-1.2,9.874-1.592l3.986-.616a46.368,46.368,0,0,1-5.144,1.164c-3.269.662-7.769,1.576-12.616,2.559l-26.145,5.433c-10.718,2.229-30.04,6.247-36.81,7.657-3.382.715-15.044,3.183-26.465,5.6-11.431,2.365-22.617,4.68-25.04,5.18-4.822,1.039-16.638,3.419-28.493,5.605-11.849,2.222-17.324,2.593-20.058,2.738C65.363,314.912,70.733,313.785,70.733,313.785Z" transform="translate(3803 2663.912)" fill="#231815"/>
    <path id="パス_292" data-name="パス 292" d="M124.242,342.05c5.982-1.6,13.223-3.119,18.453-4.216,2.617-.544,14.942-3.1,27.458-5.7l9.271-1.95,8.408-1.989c5.134-1.223,9.13-2.2,10.8-2.652,6.7-1.819,14.581-3.532,29.747-7.33,10.947-2.749,28.827-6.474,28.827-6.474a26.318,26.318,0,0,1-3.789,1.171c-2.425.651-5.757,1.548-9.342,2.512-7.2,1.894-15.444,4-19.449,4.938l-27.494,6.505c-2.526.6-11.235,2.689-19.767,4.733-8.563,1.894-16.939,3.746-18.759,4.15-3.6.871-12.442,2.84-21.283,4.812s-12.942,2.373-15.008,2.463S124.242,342.05,124.242,342.05Z" transform="translate(3803.647 2664.039)" fill="#231815"/>
    <path id="パス_293" data-name="パス 293" d="M277.965,238.861a8.029,8.029,0,0,1-.838-4.05,2.263,2.263,0,0,1,.653-1.61c.549-.3.974.555,1,1.87a7.863,7.863,0,0,0,1.133,3.793,15.507,15.507,0,0,0,2.138,2.86,16.059,16.059,0,0,0,5.164,3.816,17.721,17.721,0,0,0,3.609,1.334c1.062.258,1.578.521.066.648a14.356,14.356,0,0,1-3.748-.2,10.3,10.3,0,0,1-3.925-1.675,14.693,14.693,0,0,1-3.95-4.143,15.1,15.1,0,0,1-.974-1.875C278.087,239.147,277.965,238.861,277.965,238.861Z" transform="translate(3804.115 2663.674)" fill="#231815"/>
    <path id="パス_294" data-name="パス 294" d="M295.674,237.613c-2.463-3.353-2.391-5.5-2.079-5.984.379-.539,1.142.226,1.668,1.7,1.075,3.021,3.471,5.308,5.322,6.943a28.249,28.249,0,0,0,6.246,4.2c2.138,1.322,7.337,2.754,4.019,2.5a27.316,27.316,0,0,1-4.108-.7,15.12,15.12,0,0,1-4.324-1.887,22.231,22.231,0,0,1-4.8-4.148c-.594-.736-1.111-1.364-1.422-1.854C295.867,237.9,295.674,237.613,295.674,237.613Z" transform="translate(3804.189 2663.669)" fill="#231815"/>
    <path id="パス_295" data-name="パス 295" d="M315.18,237.071c-1.791-1.541-1.921-2.81-1.627-3.249.313-.467,1.043-.3,1.476.444.9,1.548,2.529,2.437,3.644,3.211a39.731,39.731,0,0,0,3.576,2.149c1.158.755,3.95,2.094,2.08,1.957-1.878-.214-2.8-.058-4.91-1.1a15.046,15.046,0,0,1-2.944-2.089A16.561,16.561,0,0,1,315.18,237.071Z" transform="translate(3804.253 2663.664)" fill="#231815"/>
    <path id="パス_296" data-name="パス 296" d="M57.028,208.765a42.079,42.079,0,0,0-5.586,11.5,39.112,39.112,0,0,0-1.8,12.111,32.832,32.832,0,0,0,3.878,15.388,42.462,42.462,0,0,0,9.286,11.543,44.575,44.575,0,0,0,4.389,3.414l1.692,1.169,1.253.765a30.864,30.864,0,0,0,12.553,4.624c1.018.1,1.965.151,2.8.161a13.355,13.355,0,0,0,2.18-.288c1.191-.277,1.8-.721,1.621-1.371-.3-1.09-3.34-1.689-6.829-2.616a97.264,97.264,0,0,1-9.947-3.311,30.264,30.264,0,0,1-6.457-3.73,37.73,37.73,0,0,1-9.534-9.995,29.132,29.132,0,0,1-4.878-14.341,37.327,37.327,0,0,1,.973-11.761,37.532,37.532,0,0,1,9.638-17.272,35.685,35.685,0,0,1,7.229-5.816c6.287-4.008,16.251-6.983,27.027-5.686A47.381,47.381,0,0,1,104.561,195a43.191,43.191,0,0,1,7.725,3.388,39.853,39.853,0,0,1,12.639,11.194,32.976,32.976,0,0,1,6.058,14.879,34.884,34.884,0,0,1-1.173,14.326,36.851,36.851,0,0,1-11.039,17.435,42.266,42.266,0,0,1-16.913,8.984c-1.588.437-2.744.637-3.879.855-4.581.788-8.072,1.578-8.592,2.407-.249.4.277.771,1.866.967a23.681,23.681,0,0,0,8.058-.848,50.874,50.874,0,0,0,5.212-1.641A49.917,49.917,0,0,0,111.114,264a44.069,44.069,0,0,0,9.935-7.18,39.213,39.213,0,0,0,10.506-17.524,36.775,36.775,0,0,0,1.169-14.986,34.673,34.673,0,0,0-6.347-15.6,41.358,41.358,0,0,0-13.139-11.673,44.225,44.225,0,0,0-8.048-3.537,47.837,47.837,0,0,0-8.386-1.827c-11.24-1.366-21.735,1.769-28.465,6.177A39.028,39.028,0,0,0,57.028,208.765Z" transform="translate(3803 2663.615)" fill="#231815"/>
    <path id="パス_297" data-name="パス 297" d="M162.078,254.031c-.311-1.2-1.254-6.223-1.444-7.5-.1-.639-.5-3.1-.991-5.5-.52-2.393-1.059-4.829-1.109-5.424-.112-1.2-.746-4.127-.936-5.006s-.485-2.243-.7-3.219-.7-3.219-.8-3.707-.873-2.672-1.085-3.646c-.23-.971-1.246-5.249-1.661-6.995-.38-1.755-.718-3.318-.09-3.146a7.853,7.853,0,0,1,1.319.634c.486.2.028.811.422,1.95s.9,3.483,1.585,5.275a13.826,13.826,0,0,1,.787,4.324,20.942,20.942,0,0,0,.323,4.22c.374,1.043.655,3.025.965,3.774s1.19,4.136,1.868,5.214.9,4.794,1.091,5.812c.186.993.592,0,.183.993s-.649,1.332-.533,2.024,1.328,4.745,1.286,5.352.3.958.23,1.374a1.488,1.488,0,0,0,.068,1.2,5.444,5.444,0,0,0,.529,1.209c.475.8.29.044.606,1.366C164.348,255.885,162.7,256.647,162.078,254.031Z" transform="translate(3803.611 2663.636)" fill="#231815"/>
    <path id="パス_298" data-name="パス 298" d="M169.022,211.112c-.2-1.041-.406-2.094-.606-3.119-.531-2.891-2.063-11.138-2.094-12.653-.042-2.054-.764-5-2.162-4.511-1.144.4-.556,3.411.085,4.725.419.86,2.468,9.493,3.176,12.288.373,1.473.688,2.872.84,3.835.138.7,1.016,5.2,2.078,10.648,1.081,5.454,2.4,11.816,3.009,16.35,1.352,8.917,1.539,10.16,1.721,11.357.431,2.451,2.71,3.054,1.516-.521-.527-1.77-.839-2.573-2.2-11-.66-4.517-2.015-10.885-3.126-16.346C170.151,216.687,169.219,212.083,169.022,211.112Z" transform="translate(3803.656 2663.58)" fill="#231815"/>
    <path id="パス_299" data-name="パス 299" d="M183.857,198.542c-.267-1.292-.537-2.6-.8-3.876-.709-3.591-2.751-13.841-2.844-15.721-.126-2.547-1.051-6.212-2.6-5.622-1.269.483-.493,4.225.277,5.863.505,1.074,3.141,11.805,4.045,15.281.477,1.831.885,3.57,1.093,4.769.182.872,1.342,6.463,2.747,13.234,1.425,6.774,3.151,14.689,4.04,20.319,1.9,11.071,2.158,12.612,2.413,14.1.568,3.026,3.161,3.86,1.683-.625-.663-2.208-1.041-3.214-2.94-13.678-.948-5.6-2.707-13.509-4.167-20.3C185.342,205.472,184.115,199.749,183.857,198.542Z" transform="translate(3803.716 2663.525)" fill="#231815"/>
    <path id="パス_300" data-name="パス 300" d="M198.419,194.464c-.267-1.292-.537-2.6-.8-3.876-.708-3.592-2.75-13.841-2.843-15.721-.127-2.547-1.052-6.212-2.6-5.622-1.269.483-.492,4.227.278,5.863.505,1.074,3.141,11.807,4.045,15.281.477,1.833.885,3.57,1.093,4.769.182.872,1.342,6.463,2.747,13.234,1.425,6.774,3.151,14.689,4.04,20.319,1.9,11.071,2.158,12.613,2.413,14.1.568,3.026,3.161,3.86,1.684-.625-.664-2.207-1.041-3.214-2.94-13.678-.948-5.6-2.707-13.508-4.168-20.3C199.9,201.394,198.678,195.671,198.419,194.464Z" transform="translate(3803.774 2663.506)" fill="#231815"/>
    <path id="パス_301" data-name="パス 301" d="M166.56,254.388c-3.767.672-4.79,2.754.768,1.861,5.659-.911,10.321-2.753,18.683-4.448s16.9-3.153,21.9-4.046c4.885-.871,4.051-3.367-5.563-.53-5.145,1.517-7.774,1.585-16.552,3.5C178.782,252.26,171.45,253.514,166.56,254.388Z" transform="translate(3803.704 2663.718)" fill="#231815"/>
    <path id="パス_302" data-name="パス 302" d="M153.271,207.933c-1.215.17-1.272,2.061.535,1.906,1.839-.156,3.2-1.345,5.865-1.917s5.428-.89,7.041-1.115c1.575-.218.928-2.751-2.013-1.232-1.573.813-2.478.541-5.257,1.276A51.355,51.355,0,0,1,153.271,207.933Z" transform="translate(3803.614 2663.546)" fill="#231815"/>
    <path id="パス_303" data-name="パス 303" d="M164.442,189.522c-1.34.205-1.431,2.108.56,1.9,2.027-.211,3.541-1.446,6.486-2.1s5.991-1.053,7.769-1.325c1.738-.267,1.062-2.793-2.2-1.18-1.744.864-2.737.616-5.809,1.438A63.045,63.045,0,0,1,164.442,189.522Z" transform="translate(3803.66 2663.472)" fill="#231815"/>
    <path id="パス_304" data-name="パス 304" d="M178.561,173.634c-1.3.267-1.287,2.168.654,1.87,1.976-.3,3.391-1.606,6.241-2.393s5.814-1.327,7.543-1.682c1.689-.344.886-2.833-2.22-1.074-1.662.941-2.649.741-5.615,1.7A60.561,60.561,0,0,1,178.561,173.634Z" transform="translate(3803.717 2663.407)" fill="#231815"/>
    <path id="パス_305" data-name="パス 305" d="M87.037,195.884c-.063-3.023-1.96-4.083-1.955.414.043,4.582,1.195,8.443,1.969,15.182s1.652,13.585,2.293,17.587c.664,3.9,3.091,3.146.85-4.469-1.152-4.1-1.055-6.2-2.056-13.246A141.175,141.175,0,0,1,87.037,195.884Z" transform="translate(3803 2663.55)" fill="#231815"/>
    <path id="パス_306" data-name="パス 306" d="M92.09,228.8c-2.616,2.108-2.371,4.313,1.536,1.287,3.979-3.081,6.709-6.558,12.414-11.412S117.7,209.1,121.175,206.3c3.392-2.733,1.485-4.539-4.628,1.8-3.271,3.4-5.3,4.52-11.216,9.735C100.6,222.006,95.485,226.063,92.09,228.8Z" transform="translate(3803.377 2663.577)" fill="#231815"/>
  </g>
</svg>
