<svg xmlns="http://www.w3.org/2000/svg" width="55" height="55" viewBox="0 0 55 55">
  <g id="グループ_315" data-name="グループ 315" transform="translate(-251 -1825)">
    <g id="_x33__x2C__XD_x2C__Adobe" transform="translate(251 1825)">
      <g id="グループ_238" data-name="グループ 238" transform="translate(0 0)">
        <rect id="長方形_456" data-name="長方形 456" width="55" height="55" transform="translate(0 0)" fill="#ff26be"/>
        <rect id="長方形_457" data-name="長方形 457" width="50.16" height="50.16" transform="translate(2.42 2.42)" fill="#2e001f"/>
        <g id="グループ_237" data-name="グループ 237" transform="translate(10.321 14.724)">
          <g id="グループ_236" data-name="グループ 236">
            <path id="パス_186" data-name="パス 186" d="M115.247,137.4h-4.3l-4.612,9.646-4.674-9.646H97.24l6.264,12.525-6.487,12.825h4.373l4.695-9.829,4.749,9.829h4.734l-6.686-12.975Zm11.877,0v6.446h-1.238c-4.225,0-9.332,2.725-9.332,9.684,0,5.38,2.726,9.423,8.532,9.423,4.275,0,6.289-1.479,6.289-1.479V137.4Zm0,21.85a4.523,4.523,0,0,1-1.644.215c-1.155,0-4.7-.509-4.7-6.125s4.071-6.067,5.049-6.067a2.084,2.084,0,0,1,1.292.274v11.7Z" transform="translate(-97.016 -137.396)" fill="#ffd9f2"/>
          </g>
        </g>
      </g>
    </g>
  </g>
</svg>
