<svg xmlns="http://www.w3.org/2000/svg" width="720" height="680" viewBox="0 0 720 680">
  <g id="グループ_354" data-name="グループ 354" transform="translate(-600 -4149)">
    <g id="パス_201" data-name="パス 201" transform="translate(600 4149)" fill="#fff">
      <path d="M 581.7672729492188 679 L 138.2328643798828 679 L 1.177706837654114 260.120361328125 L 360.0000305175781 1.233138084411621 L 718.8223266601562 260.120361328125 L 581.7672729492188 679 Z" stroke="none"/>
      <path d="M 360.0000305175781 2.4661865234375 L 2.35528564453125 260.5038146972656 L 138.9577026367188 678 L 581.0423583984375 678 L 717.644775390625 260.5038146972656 L 360.0000305175781 2.4661865234375 M 360.0000305175781 0 L 720 259.7369079589844 L 582.4923095703125 680 L 137.5077514648438 680 L 6.103515625e-05 259.7369079589844 L 360.0000305175781 0 Z" stroke="none" fill="#0a1612"/>
    </g>
    <g id="パス_202" data-name="パス 202" transform="translate(672 4217)" fill="#fff">
      <path d="M 465.268798828125 543 L 110.7312088012695 543 L 1.177632689476013 208.1729736328125 L 288 1.233052730560303 L 574.8223876953125 208.1729736328125 L 465.268798828125 543 Z" stroke="none"/>
      <path d="M 288 2.46624755859375 L 2.35528564453125 208.5564880371094 L 111.4561767578125 542 L 464.5438232421875 542 L 573.6447143554688 208.5564880371094 L 288 2.46624755859375 M 288 0 L 576 207.7895812988281 L 465.9937744140625 544 L 110.0062255859375 544 L 0 207.7895812988281 L 288 0 Z" stroke="none" fill="#0a1612"/>
    </g>
    <g id="パス_203" data-name="パス 203" transform="translate(744 4285)" fill="#fff">
      <path d="M 348.7703857421875 407 L 83.22965240478516 407 L 1.177642583847046 156.2256011962891 L 216 1.233097195625305 L 430.8223571777344 156.2256011962891 L 348.7703857421875 407 Z" stroke="none"/>
      <path d="M 216 2.46624755859375 L 2.355255126953125 156.6091156005859 L 83.95462036132812 406 L 348.04541015625 406 L 429.6447448730469 156.6091156005859 L 216 2.46624755859375 M 216 0 L 432 155.8421630859375 L 349.4953308105469 408 L 82.50466918945312 408 L 0 155.8421630859375 L 216 0 Z" stroke="none" fill="#0a1612"/>
    </g>
    <g id="パス_204" data-name="パス 204" transform="translate(816 4353)" fill="#fff">
      <path d="M 232.2719421386719 271 L 55.72812271118164 271 L 1.177639603614807 104.2782440185547 L 144 1.233114123344421 L 286.8223571777344 104.2782440185547 L 232.2719421386719 271 Z" stroke="none"/>
      <path d="M 144 2.466217041015625 L 2.35528564453125 104.6616668701172 L 56.45307922363281 270 L 231.5469665527344 270 L 285.6447143554688 104.6616668701172 L 144 2.466217041015625 M 144 0 L 288 103.894775390625 L 232.9969177246094 272 L 55.00311279296875 272 L 0 103.894775390625 L 144 0 Z" stroke="none" fill="#0a1612"/>
    </g>
    <g id="パス_205" data-name="パス 205" transform="translate(888 4421)" fill="#fff">
      <path d="M 115.7734832763672 135 L 28.22653579711914 135 L 1.177634239196777 52.33083343505859 L 72 1.233104586601257 L 142.8223724365234 52.33083343505859 L 115.7734832763672 135 Z" stroke="none"/>
      <path d="M 72 2.466201782226562 L 2.355270385742188 52.71428680419922 L 28.95150756835938 134 L 115.0485153198242 134 L 141.6447296142578 52.71428680419922 L 72 2.466201782226562 M 72 0 L 144 51.94738006591797 L 116.4984588623047 136 L 27.50155639648438 136 L 0 51.94738006591797 L 72 0 Z" stroke="none" fill="#0a1612"/>
    </g>
    <path id="パス_206" data-name="パス 206" d="M5406.085,4259.166l-285.823,206.378,109.172,333.707L5493.9,4663.5l126.362-181.722Z" transform="translate(-4446 -40)" fill="#f7ce3e" opacity="0.62"/>
  </g>
</svg>
