<svg xmlns="http://www.w3.org/2000/svg" width="55" height="55" viewBox="0 0 55 55">
  <g id="Ai-icon" transform="translate(-933 -3853)">
    <rect id="長方形_458" data-name="長方形 458" width="55" height="55" transform="translate(933 3853)" fill="#fd7904"/>
    <rect id="長方形_459" data-name="長方形 459" width="48.397" height="48.397" transform="translate(936.294 3856.294)" fill="#271300"/>
    <g id="Ai">
      <path id="パス_187" data-name="パス 187" d="M320.253,219.093h-3.137a.611.611,0,0,1-.616-.616V200.516a.611.611,0,0,1,.616-.616h3.137a.611.611,0,0,1,.616.616v17.961A.62.62,0,0,1,320.253,219.093Z" transform="translate(652.665 3672.565)" fill="#fd7b02"/>
      <circle id="楕円形_13" data-name="楕円形 13" cx="2.549" cy="2.549" r="2.549" transform="translate(968.807 3865.103)" fill="#fd7b02"/>
      <path id="パス_188" data-name="パス 188" d="M159.04,179h1.633a1.182,1.182,0,0,0,1.132-.859l1.49-5.414a1.182,1.182,0,0,1,1.131-.859H169.7a1.188,1.188,0,0,1,1.117.8l1.8,5.529a1.156,1.156,0,0,0,1.117.8H176a1.165,1.165,0,0,0,1.117-1.5l-7.076-23.561a1.152,1.152,0,0,0-1.117-.831h-3.437a1.182,1.182,0,0,0-1.131.859l-6.431,23.561A1.159,1.159,0,0,0,159.04,179Z" transform="translate(788.57 3712.662)" fill="#fd7b02"/>
    </g>
    <path id="パス_189" data-name="パス 189" d="M207.221,187l-2.521,9.926H210Z" transform="translate(748.452 3683.617)" fill="#271300"/>
  </g>
</svg>
