<svg xmlns="http://www.w3.org/2000/svg" width="55" height="55" viewBox="0 0 55 55">
  <g id="グループ_303" data-name="グループ 303" transform="translate(-297 -2064)">
    <g id="_x32_3_x2C__Photoshop_x2C__Adobe" transform="translate(297 2064)">
      <g id="グループ_234" data-name="グループ 234" transform="translate(0 0)">
        <rect id="長方形_453" data-name="長方形 453" width="55" height="55" transform="translate(0 0)" fill="#4fc7ec"/>
        <rect id="長方形_454" data-name="長方形 454" width="50.16" height="50.16" transform="translate(2.42 2.42)" fill="#242238"/>
        <g id="グループ_233" data-name="グループ 233" transform="translate(13.377 12.946)">
          <g id="グループ_232" data-name="グループ 232">
            <g id="グループ_231" data-name="グループ 231">
              <g id="XMLID_239_">
                <g id="グループ_229" data-name="グループ 229">
                  <path id="XMLID_240_" d="M125.388,121.23c0-.19.033-.265.2-.265,1.237-.038,3.678-.076,6.151-.076,6.379,0,8.812,3.711,8.844,8.1,0,6.016-4.484,8.3-9.268,8.3h-2.018v8.6c0,.227-.065.3-.228.3h-3.45c-.163,0-.228-.076-.228-.265V121.23Zm3.905,12.388a16.451,16.451,0,0,0,2.116.075c2.571,0,5.044-.733,5.044-4.517,0-3.027-1.66-4.582-4.719-4.582-1.269,0-2.181.038-2.441.076Z" transform="translate(-125.388 -120.889)" fill="#4fc7ec"/>
                </g>
              </g>
              <g id="XMLID_236_" transform="translate(17.498 6.418)">
                <g id="グループ_230" data-name="グループ 230">
                  <path id="XMLID_237_" d="M293.64,183.953c-1.567,0-1.983.98-1.983,1.7,0,.908.415,1.4,2.814,2.535,3.294,1.589,4.7,2.989,4.7,5.714,0,3.784-2.462,5.937-5.98,5.937-1.695,0-3.833-.162-5.177-1.145a.392.392,0,0,1-.192-.379v-3.481c0-.189.128-.265.224-.189a8.421,8.421,0,0,0,5.18,1.6,1.777,1.777,0,0,0,1.983-1.813c0-.984-.355-1.552-2.658-2.649-3.294-1.589-4.665-2.955-4.665-5.717,0-3.065,2.3-5.6,6.072-5.6,1.951,0,3.325.052,4.221.657a.561.561,0,0,1,.192.492v3.1c0,.227-.128.341-.288.227A8.273,8.273,0,0,0,293.64,183.953Z" transform="translate(-287.824 -180.471)" fill="#4fc7ec"/>
                </g>
              </g>
            </g>
          </g>
        </g>
      </g>
    </g>
  </g>
</svg>
