<svg xmlns="http://www.w3.org/2000/svg" width="55" height="55" viewBox="0 0 55 55">
  <g id="グループ_317" data-name="グループ 317" transform="translate(-151 -1921)">
    <g id="_x31_87-js" transform="translate(151 1921)">
      <g id="グループ_235" data-name="グループ 235" transform="translate(0 0)">
        <rect id="長方形_455" data-name="長方形 455" width="55" height="55" transform="translate(0 0)" fill="#f0db4f"/>
        <path id="パス_181" data-name="パス 181" d="M162.273,254.782c0,5.331-3.13,7.765-7.692,7.765a8,8,0,0,1-7.728-4.707l4.194-2.531c.807,1.431,1.541,2.641,3.314,2.641,1.687,0,2.764-.66,2.764-3.24v-17.5h5.148v17.572Z" transform="translate(-132.461 -212.057)" fill="#323330"/>
        <path id="パス_182" data-name="パス 182" d="M309.223,260.377c-4.781,0-7.875-2.275-9.379-5.258l4.194-2.421a5.617,5.617,0,0,0,5.075,3.13c2.128,0,3.5-1.064,3.5-2.543,0-1.761-1.394-2.384-3.754-3.424l-1.284-.55c-3.717-1.577-6.175-3.571-6.175-7.765,0-3.864,2.947-6.8,7.532-6.8a7.582,7.582,0,0,1,7.312,4.121l-4.011,2.568c-.88-1.577-1.834-2.2-3.314-2.2a2.235,2.235,0,0,0-2.458,2.2c0,1.541.954,2.165,3.167,3.13l1.284.55c4.378,1.871,6.835,3.791,6.835,8.1,0,4.622-3.644,7.165-8.523,7.165Z" transform="translate(-267.232 -209.887)" fill="#323330"/>
      </g>
    </g>
  </g>
</svg>
