<svg xmlns="http://www.w3.org/2000/svg" width="55" height="50.902" viewBox="0 0 55 50.902">
  <g id="グループ_325" data-name="グループ 325" transform="translate(-105 -2556)">
    <g id="グループ_242" data-name="グループ 242" transform="translate(123.333 2556)">
      <g id="iconfinder_badge-css-3_317756">
        <path id="パス_183" data-name="パス 183" d="M35.229,37.828,20.333,41.9l-14.9-4.074L2,0H38.667Z" transform="translate(-2)" fill="#1f62ae"/>
        <path id="パス_184" data-name="パス 184" d="M16,2V38.337l12.089-3.59L31.3,2Z" transform="translate(2.332 0.619)" fill="#347dc6"/>
        <path id="パス_185" data-name="パス 185" d="M29.548,6H7.607l.515,5.238H18.6L8.449,15.153,8.932,20.4H23.183l-.45,5.238-4.135,1.3-4.11-1.317-.429-2.6H9.173l.6,6.53L18.6,32.176l8.81-2.624,1.3-14.4H18.631l10.441-3.915Z" transform="translate(-0.265 1.857)" fill="#fff"/>
      </g>
    </g>
    <g id="グループ_243" data-name="グループ 243" transform="translate(105 2565)">
      <g id="iconfinder_badge-html-5_317755">
        <path id="パス_178" data-name="パス 178" d="M35.229,37.828,20.333,41.9l-14.9-4.074L2,0H38.667Z" transform="translate(-2)" fill="#e44d26"/>
        <path id="パス_179" data-name="パス 179" d="M16,2V38.337l12.089-3.59L31.3,2Z" transform="translate(2.332 0.619)" fill="#ff6c39"/>
        <path id="パス_180" data-name="パス 180" d="M29.548,6H7.607l.515,5.238L8.932,20.4H23.184l-.465,5.217L18.6,26.938l-4.116-1.317-.274-2.6H9.173l.6,6.53L18.6,32.176l8.81-2.624,1.3-14.385H13.689l-.327-3.928H29.072Z" transform="translate(-0.265 1.857)" fill="#fff"/>
      </g>
    </g>
  </g>
</svg>
